<?xml version="1.0" encoding="UTF-8" standalone="no" ?>
<!DOCTYPE svg PUBLIC "-//W3C//DTD SVG 1.1//EN" "http://www.w3.org/Graphics/SVG/1.1/DTD/svg11.dtd">
<svg xmlns="http://www.w3.org/2000/svg" xmlns:xlink="http://www.w3.org/1999/xlink" version="1.1" width="220" height="200" viewBox="0 0 1280 1024" xml:space="preserve">
<desc>Created with Fabric.js 3.1.0</desc>
<defs>
</defs>
<g transform="matrix(1.9692780337941629 0 0 1.9692780337941629 640.0153846153846 512.012312418764)" id="background-logo"  >
</g>
<g transform="matrix(4.027630183211227 0 0 4.027630183211227 652.558021065987 507.4792545151976)" style="" id="logo-logo"  >
	<g transform="matrix(1.2599946067498757 0 0 1.2599946067498757 5.572793035126608 2.842171e-14)" style=""  >
	<g transform="matrix(1 0 0 1 0 0)"  >
<rect style="stroke: none; stroke-width: 1; stroke-dasharray: none; stroke-linecap: butt; stroke-dashoffset: 0; stroke-linejoin: miter; stroke-miterlimit: 4; fill: rgb(19,80,152); fill-rule: nonzero; opacity: 1;"  paint-order="stroke"  x="-100" y="-100" rx="40" ry="40" width="200" height="200" />
</g>
</g>
	<g transform="matrix(1.2599946067498757 0 0 1.2599946067498757 -5.572793035126608 2.842171e-14)" style=""  >
	<g transform="matrix(1 0 0 1 0 0)"  >
<rect style="stroke: none; stroke-width: 1; stroke-dasharray: none; stroke-linecap: butt; stroke-dashoffset: 0; stroke-linejoin: miter; stroke-miterlimit: 4; fill: rgb(44,171,188); fill-rule: nonzero; opacity: 1;"  paint-order="stroke"  x="-100" y="-100" rx="40" ry="40" width="200" height="200" />
</g>
</g>
	<g transform="matrix(1.0601689517912603 0 0 1.0601689517912603 0.5339310072349122 5.721148630481935)" style=""  >
	<g transform="matrix(1 0 0 1 0 0)"  >
<path style="stroke: none; stroke-width: 1; stroke-dasharray: none; stroke-linecap: butt; stroke-dashoffset: 0; stroke-linejoin: miter; stroke-miterlimit: 4; fill: rgb(19,80,152); fill-rule: nonzero; opacity: 1;"  paint-order="stroke"  transform=" translate(-100, -75)" d="M 200 62.81 C 200 28.18 155.14 0 100 0 S 0 28.18 0 62.81 c 0 28.55 30.71 53.54 74.69 60.77 l 1.24 0.21 l 0.39 1.19 a 21.13 21.13 0 0 1 1.07 6.61 c 0 7.28 -3.75 13.74 -7.54 18.41 c 10.55 -4.81 26.5 -13.39 31.17 -23.24 l 0.56 -1.16 l 1.28 0 C 156.42 124.62 200 96.47 200 62.81 Z" stroke-linecap="round" />
</g>
</g>
	<g transform="matrix(1.0289283139443333 0 0 1.0289283139443333 -6.341196241392538 7.033691004896468)" style=""  >
	<g transform="matrix(1 0 0 1 0 0)"  >
<path style="stroke: none; stroke-width: 1; stroke-dasharray: none; stroke-linecap: butt; stroke-dashoffset: 0; stroke-linejoin: miter; stroke-miterlimit: 4; fill: rgb(255,255,255); fill-rule: nonzero; opacity: 1;"  paint-order="stroke"  transform=" translate(-100, -75)" d="M 200 62.81 C 200 28.18 155.14 0 100 0 S 0 28.18 0 62.81 c 0 28.55 30.71 53.54 74.69 60.77 l 1.24 0.21 l 0.39 1.19 a 21.13 21.13 0 0 1 1.07 6.61 c 0 7.28 -3.75 13.74 -7.54 18.41 c 10.55 -4.81 26.5 -13.39 31.17 -23.24 l 0.56 -1.16 l 1.28 0 C 156.42 124.62 200 96.47 200 62.81 Z" stroke-linecap="round" />
</g>
</g>
</g>
<g transform="matrix(1.9692780337941629 0 0 1.9692780337941629 630.3167226793887 469.6668319038305)" id="tagline-a9d9840c-5823-4ac9-95bc-488e483525e3-logo-path"  >
<path style="stroke: none; stroke-width: 0; stroke-dasharray: none; stroke-linecap: butt; stroke-dashoffset: 0; stroke-linejoin: miter; stroke-miterlimit: 4; fill: rgb(19,80,152); fill-rule: nonzero; opacity: 1;"  paint-order="stroke"  transform=" translate(-25.310000000000002, 52.195)" d="M 22.98 3.11 L 7.87 0.52 L 9.89 -16.61 L 23.34 -14.13 L 22.98 3.11 Z M 25 -23.34 L 9.89 -28.47 L 9.89 -107.5 L 42.75 -104.03 L 25 -23.34 Z" stroke-linecap="round" />
</g>
</svg>
